<svg preserveAspectRatio="none" width="100%" height="100%" overflow="visible" style="display: block;" viewBox="0 0 146.845 146.845" fill="none" xmlns="http://www.w3.org/2000/svg">
<g id="image 23 [Vectorized]">
<path id="Vector" d="M135.324 56.7726C136.217 56.5463 138.136 55.9998 138.91 56.4518C139.156 56.5957 139.235 56.6651 139.434 56.616C139.444 56.4166 139.425 56.4161 139.502 56.2368L139.606 56.2466L139.745 56.4265C140.09 56.3496 140.27 56.1299 140.518 56.1842C140.569 56.3653 140.549 56.362 140.482 56.5436C140.763 56.5931 140.785 56.544 140.926 56.7118L140.841 56.9269C141.086 57.0554 141.206 56.837 141.431 57.0617C141.658 57.2873 141.853 57.7714 142.142 57.8646L142.355 57.7639C142.553 57.9337 142.988 59.7767 142.995 60.0592C142.814 60.1833 142.731 60.2429 142.558 60.3899L142.555 60.5155C142.753 60.5096 142.818 60.4311 143.006 60.3173C143 60.5304 142.804 60.6712 142.635 60.8313L142.124 61.3066L142.005 61.2651L141.907 61.0233C141.683 61.2401 141.273 61.8917 141.169 62.2005L141.214 62.304C141.417 62.2887 141.415 62.304 141.579 62.1914L141.435 62.0579L141.497 61.977C141.737 62.0537 141.645 61.9873 141.799 62.1592C141.585 62.4383 140.973 62.6448 140.634 62.7732C137.934 66.1217 135.567 70.9678 133.345 74.6885C131.877 77.1479 130.542 79.608 129.029 82.0494C128.951 82.1677 128.773 82.4645 128.679 82.5384L128.543 82.9528C128.369 83.3802 128.271 83.4182 128.091 83.7788C127.646 84.6701 127.236 85.3814 126.768 86.2733C126.314 87.1402 125.856 88.2724 125.349 89.1313C125.332 89.16 125.104 89.2812 125.055 89.3027C124.609 89.5035 124.15 89.3708 123.729 89.5694L123.722 89.6648C123.9 89.7566 124.013 89.8125 124.18 89.9279C123.732 90.0771 123.512 89.9165 123.271 89.5637C122.854 89.6691 123.225 89.7487 122.976 89.791C122.5 89.8735 121.305 90.2413 120.889 90.2671L120.831 90.2191C120.548 89.9932 120.303 89.8269 120.001 90.1301C119.997 90.2836 120.025 90.2212 119.93 90.3216C119.019 90.0068 118.91 89.1987 118.685 88.3555C118.649 88.2724 118.632 88.2394 118.608 88.1605C118.398 87.4944 120.408 83.5078 120.84 82.6818C121.259 81.8809 121.834 81.194 122.268 80.4096L127.234 71.4846C127.332 71.1234 127.517 70.75 127.672 70.4044C124.695 71.7115 121.816 73.3312 118.802 74.6304C107.623 79.5592 95.7853 82.8302 83.662 84.3403C78.4586 84.9935 74.3824 85.1827 69.1701 85.1885C63.7695 85.2358 58.3719 84.9153 53.0147 84.2291C51.2047 83.981 49.3745 83.6182 47.6015 83.2633C36.986 81.1359 26.4939 77.5996 17.1425 72.0793C16.028 71.4218 14.6502 70.7267 13.6221 69.9278C13.8787 69.8258 14.1877 69.4613 14.3108 69.2053L14.2618 69.1364C13.9468 69.3006 13.7751 69.5523 13.5399 69.8259C12.9603 69.3487 12.3884 69.2672 11.816 68.8556C9.31975 67.0624 6.69185 65.3711 4.53868 63.1607C3.50162 62.0961 4.58641 61.8622 3.6478 60.9324C3.75361 60.7763 3.97067 60.4632 4.03693 60.2947C4.28084 59.6747 3.94141 57.7813 4.23284 57.335L4.374 57.309C4.25819 57.5475 4.26148 57.4549 4.27335 57.6906C4.57916 57.9118 4.76092 57.8603 5.09922 57.7673C5.85971 56.2927 6.99231 57.7623 7.8141 58.3769C8.33501 58.7666 8.80171 59.2877 9.34506 59.6575C10.0949 60.0875 10.6157 60.7421 11.2938 61.275C11.8483 61.7106 12.6774 62.0633 13.196 62.4892C14.2209 63.3309 15.0189 63.9745 16.1797 64.6452C17.1599 65.2115 18.0097 65.8533 19.073 66.3294C19.0906 66.3666 19.1335 66.445 19.137 66.48C19.677 66.9116 21.0504 67.4217 21.6964 67.6943C21.9079 67.7836 21.8416 67.9926 21.8641 68.0038C22.6071 68.3747 26.5534 70.3357 27.1139 70.4891C27.0362 70.4679 28.1683 71.0252 28.2101 71.0449C32.7184 73.1032 37.3983 74.7631 42.1962 76.005C42.5382 76.0917 43.9016 76.4739 44.1648 76.4925C44.5051 76.3663 44.8793 76.5879 45.2516 76.7442C45.7788 76.9163 50.0767 77.8226 50.6106 77.8341C51.1359 77.8341 51.6655 77.8434 52.1642 78.0312L52.3301 77.9409C54.0974 78.0692 55.9184 78.3998 57.6946 78.574C60.5976 78.8587 63.53 79.0888 66.4459 79.1584C70.6155 79.2581 74.7939 79.0544 78.944 78.6737C79.2057 78.65 79.7148 78.597 79.9658 78.6464C80.5071 79.0501 81.8321 78.4822 82.4187 78.3776C83.1493 78.1746 84.6837 78.0556 85.5212 77.9158C87.9562 77.5093 90.4507 77.1242 92.8656 76.5994C95.6132 75.9856 98.3493 75.3209 101.073 74.6061C101.815 74.4032 103.405 73.7528 104.04 73.6933C104.878 73.4208 105.732 73.2136 106.57 72.9247C106.913 72.8064 108.211 72.2672 108.463 72.326C108.689 72.1317 109.983 71.6234 110.298 71.5385L110.412 71.6432C110.539 71.6351 110.582 71.63 110.692 71.5587C111.202 71.2291 111.688 71.2694 112.295 71.0019C112.978 70.7011 113.627 70.3821 114.302 70.0638C114.874 69.7943 115.804 69.5691 116.344 69.3036C118.193 68.3953 120.05 67.4374 121.897 66.5265C122.278 66.1761 123.767 65.5896 123.932 65.2296L123.765 65.1276C123.587 65.2026 123.612 65.2118 123.423 65.195C122.054 65.0615 120.732 65.3769 119.377 65.4868C117.289 65.6561 115.178 65.7633 113.083 65.8214C112.774 65.83 112.509 65.7132 112.22 65.6911C111.976 65.6724 111.625 65.8638 111.365 65.8403C110.962 65.83 110.288 65.606 109.919 65.6356C109.231 65.6908 107.605 65.8561 106.966 65.6219C107.106 65.3982 107.82 65.6402 108.088 65.4845C108.297 65.3639 108.448 65.5502 108.702 65.4679C108.151 65.177 108.137 65.4997 107.795 64.9462C107.785 64.8473 107.794 64.8929 107.759 64.7821C107.711 64.6283 107.474 64.5642 107.335 64.4891C106.698 64.1463 106.021 63.9634 105.35 63.7054C104.867 63.5202 104.625 63.3796 104.407 62.907C104.309 62.7212 104.007 62.6096 103.817 62.5241L103.498 62.4885L103.44 62.3971L103.611 62.2328L103.605 62.1459C103.391 61.9736 103.194 61.7926 103.178 61.4965C103.43 61.534 103.493 61.621 103.721 61.7739L103.883 61.7186C103.608 61.4519 103.254 61.1705 103.122 60.8295C103.198 60.3907 103.174 60.3619 102.846 60.1107C102.853 59.8143 103.219 59.8401 103.259 59.6624C103.287 59.5335 103.045 59.3715 103.191 59.0694C103.528 58.996 105.137 58.6288 105.362 58.6275C106.409 58.6503 107.478 58.7215 108.523 58.785C112.165 59.0065 115.763 58.8518 119.399 58.6332C120.236 58.5829 121.043 58.4273 121.89 58.4454L122.196 58.3911C125.396 58.0589 128.68 57.4658 131.911 57.1943C132.99 57.1037 133.719 56.8459 134.904 56.8287C135.078 56.8808 135.146 56.8318 135.324 56.7726Z" fill="var(--fill-0, #FECC66)"/>
<path id="Vector_2" d="M127.234 71.4846C127.796 71.1584 127.828 70.2554 128.437 69.9806L128.613 70.1025C128.973 69.8711 128.877 69.6673 129.119 69.6656C128.889 70.3279 128.324 71.0979 127.994 71.7409C127.326 73.043 126.547 74.2949 125.826 75.5676C125.549 76.0566 124.93 76.7392 125.006 77.264C124.882 77.4039 124.917 77.3709 124.771 77.4784C124.834 77.8986 125.054 77.4856 124.933 77.8685C124.738 77.8843 124.804 77.8843 124.609 77.8398C124.324 77.9904 122.13 81.9784 121.96 82.4437C121.859 82.7191 121.892 83.1142 121.629 83.2819C120.795 83.8132 119.912 87.3123 119.11 87.7045L119.049 87.8622L118.811 88.1648C118.716 88.2824 118.751 88.2308 118.685 88.3555C118.649 88.2724 118.632 88.2394 118.608 88.1605C118.398 87.4944 120.408 83.5078 120.84 82.6818C121.259 81.8809 121.834 81.194 122.268 80.4096L127.234 71.4846Z" fill="var(--fill-0, #FECC66)"/>
<path id="Vector_3" d="M124.369 77.4254C124.391 77.7244 121.989 81.8838 121.68 82.2487C121.617 82.0092 121.629 81.9533 121.77 81.7468C122.625 80.487 123.392 78.5324 124.369 77.4254Z" fill="var(--fill-0, #FECC66)"/>
<path id="Vector_4" d="M128.485 70.2727L128.518 70.3684C127.99 71.3301 127.456 72.2887 126.917 73.2445C126.854 73.2201 126.895 73.2423 126.824 73.1405C126.965 72.6207 128.08 70.6973 128.485 70.2727Z" fill="var(--fill-0, #FECC66)"/>
<path id="Vector_5" d="M107.795 64.9462C107.969 64.751 108.028 64.6465 108.26 64.5238C108.549 64.585 108.499 64.8213 108.514 65.0896L108.726 65.0916L108.765 65.0145L108.686 64.8437C108.908 64.7809 109.996 64.897 110.339 64.8932C111.777 64.8776 113.217 64.9505 114.654 64.914C116.321 64.8715 118.206 64.7387 119.853 64.6966C121.174 64.6627 125.189 63.9319 126.212 64.2124C125.833 64.2916 124.624 64.4761 124.405 64.599C124.678 64.5953 125.205 64.5465 125.413 64.6594C125.211 64.8638 124.208 64.9011 123.896 64.9079L123.777 65.0001L123.765 65.1276C123.587 65.2026 123.612 65.2118 123.423 65.195C122.054 65.0615 120.732 65.3769 119.377 65.4868C117.289 65.6561 115.178 65.7633 113.083 65.8214C112.774 65.83 112.509 65.7132 112.22 65.6911C111.976 65.6724 111.625 65.8638 111.365 65.8403C110.962 65.83 110.288 65.606 109.919 65.6356C109.231 65.6908 107.605 65.8561 106.966 65.6219C107.106 65.3982 107.82 65.6402 108.088 65.4845C108.297 65.3639 108.448 65.5502 108.702 65.4679C108.151 65.177 108.137 65.4997 107.795 64.9462Z" fill="var(--fill-0, #FECC66)"/>
<path id="Vector_6" d="M123.128 64.6456C123.432 64.6083 123.473 64.6113 123.781 64.6449C123.545 64.8664 121.071 65.0535 120.529 65.1081C120.164 65.0569 120.185 65.1287 119.768 65.0037C120.01 64.8897 122.746 64.673 123.128 64.6456Z" fill="var(--fill-0, #FECC66)"/>
<path id="Vector_7" d="M113.378 65.211C113.878 65.175 114.425 65.1222 114.912 65.2491L114.881 65.3488L114.597 65.3402C114.146 65.3102 113.703 65.4185 113.255 65.4988L113.141 65.3499L113.191 65.2542L113.378 65.211Z" fill="var(--fill-0, #FECC66)"/>
<path id="Vector_8" d="M102.393 74.4039C102.647 74.4426 102.965 74.5086 103.21 74.5315L103.244 74.6434C103.008 74.71 102.748 74.657 102.557 74.7086C102.035 74.8448 101.519 75.0793 101 75.2198C100.485 75.3597 100.063 75.2944 99.6198 75.6429C99.2993 75.6974 98.9595 75.6888 98.6397 75.7684C97.5075 76.0501 96.3739 76.3061 95.2403 76.585C94.8904 76.6718 94.0171 77.1766 93.7116 77.0905C93.1258 76.9256 92.8777 77.1465 92.317 77.2526C92.1213 77.353 90.797 77.4605 90.7482 77.5014C90.0678 78.0807 89.5816 77.7645 88.8503 77.9603L88.7822 78.1374C88.5434 78.3374 88.1311 77.9624 87.5976 78.1345C87.4005 78.2693 87.394 78.3432 87.3058 78.5661L87.2779 78.64L87.1581 78.6687L87.0678 78.5905L87.1043 78.379L87.0248 78.3059C86.8835 78.3525 86.7021 78.4242 86.5616 78.3812C85.9915 78.2048 84.9956 78.8465 84.5317 78.4916L84.5776 78.3754C84.8472 78.2284 85.4208 78.1868 85.7434 78.1202C89.4884 77.3444 93.2764 76.9192 96.9769 75.8608C97.5627 75.6938 98.2446 75.6199 98.8175 75.4428C100.017 75.0714 101.156 74.6591 102.393 74.4039Z" fill="var(--fill-0, #FECC66)"/>
<path id="Vector_9" d="M27.1139 70.4891C27.0362 70.4679 28.1683 71.0252 28.2101 71.0449C32.7184 73.1032 37.3983 74.7631 42.1962 76.005C42.5382 76.0917 43.9016 76.4739 44.1648 76.4925L44.0463 76.8109C43.7426 76.727 43.3192 76.5542 43.0331 76.5241C42.7131 76.4897 42.8498 76.831 42.7133 76.9521C42.4205 75.6615 41.8675 76.8252 41.3639 76.3857C41.4188 76.304 41.4667 76.2344 41.5258 76.1548L41.5744 76.091L41.4774 75.9999C41.0509 75.9734 41.4953 76.0415 41.2389 76.2366C40.8356 75.6773 40.3329 75.9426 39.7529 75.9404C39.4683 75.711 39.8092 75.939 39.7245 75.6228C38.3077 75.2091 36.811 74.8714 35.4341 74.3494C34.8368 74.1228 34.0009 73.5965 33.3696 73.6352C33.0674 73.6531 28.8894 71.4745 27.8534 71.5995C27.8274 71.6026 27.8017 71.6075 27.7759 71.6115C27.4352 71.4026 27.8859 71.5702 27.6412 71.2025C27.3281 71.1642 26.5881 71.1573 26.4223 71.1245L26.2926 70.8231L26.6491 70.9003C26.9454 70.7899 26.8815 70.7786 27.1139 70.4891Z" fill="var(--fill-0, #FECC66)"/>
<path id="Vector_10" d="M52.3302 77.9409C54.0974 78.0692 55.9184 78.3998 57.6946 78.574C60.5976 78.8587 63.53 79.0888 66.4459 79.1584C70.6155 79.2581 74.7939 79.0544 78.944 78.6737C79.2057 78.65 79.7148 78.597 79.9658 78.6464C79.6237 78.9082 78.8501 78.9791 78.4048 79.0386C77.211 78.8931 74.558 79.4545 73.1039 79.2495C72.5289 79.1677 70.7207 79.3843 70.0041 79.4101C64.5581 79.6087 59.3512 79.0931 53.9769 78.3281C53.4402 78.2593 52.8225 78.1775 52.3302 77.9409Z" fill="var(--fill-0, #FECC66)"/>
<path id="Vector_11" d="M53.9769 78.3281C59.3512 79.0931 64.5581 79.6087 70.0041 79.4101C70.7207 79.3843 72.5289 79.1677 73.1039 79.2495C74.558 79.4545 77.211 78.8931 78.4048 79.0386L78.4077 79.3441L78.237 79.4717C77.7179 79.3685 74.7237 79.4244 74.2719 79.5707C74.1873 79.6997 74.1866 79.7026 74.0826 79.8224C73.8217 79.1577 73.4287 79.9034 72.9254 79.9113L72.8315 79.7141C72.5188 79.6402 70.8834 79.666 70.4797 79.6646C68.7837 79.6589 67.0651 79.6818 65.3681 79.661C64.8398 79.6345 64.3266 79.5391 63.7941 79.5255C62.0567 79.4803 60.3373 79.3391 58.609 79.1677C58.1464 79.1218 57.6037 79.0594 57.1448 79.0774C57.0399 79.2086 57.0984 79.1476 56.9689 79.2588C56.885 79.2129 56.4257 78.9562 56.3541 78.9411C55.7558 78.8164 54.6006 79.058 54.112 78.6185L53.9849 78.7203L53.9769 78.3281Z" fill="var(--fill-0, #FECC66)"/>
<path id="Vector_12" d="M121.897 66.5265C122.44 66.2909 122.991 66.0814 123.532 65.8381C123.999 65.6282 124.727 65.0162 125.209 65.0785L125.24 65.1814C125.056 65.4893 124.967 65.5449 124.694 65.7912C124.451 65.7195 124.332 65.7005 124.105 65.8741C123.542 66.3037 122.488 66.5122 122.195 67.1552C121.915 67.184 121.908 66.8333 121.756 67.4338L121.641 67.4921C121.342 67.363 121.477 67.3556 121.224 67.4425C121.064 67.6516 120.956 67.8109 120.815 68.0331L120.714 68.0206L120.804 67.6892C120.617 67.6733 118.598 68.6024 118.277 68.7469C116.371 69.6186 114.446 70.4462 112.502 71.2292C111.794 71.5138 111.078 71.7438 110.365 72.0306L110.412 71.6432C110.539 71.6351 110.582 71.63 110.692 71.5587C111.202 71.2291 111.688 71.2694 112.295 71.0019C112.978 70.7011 113.627 70.3821 114.302 70.0638C114.874 69.7943 115.804 69.5691 116.344 69.3036C118.193 68.3953 120.05 67.4374 121.897 66.5265Z" fill="var(--fill-0, #FECC66)"/>
<path id="Vector_13" d="M9.34506 59.6575C10.0949 60.0875 10.6157 60.7421 11.2938 61.275C11.8483 61.7106 12.6774 62.0633 13.196 62.4892C14.2209 63.3309 15.0189 63.9745 16.1797 64.6452C17.1599 65.2115 18.0097 65.8533 19.073 66.3294C19.0906 66.3666 19.1335 66.445 19.137 66.48C18.9886 66.5386 18.8329 66.5964 18.688 66.6617C18.3105 66.3895 18.3672 66.4626 17.9263 66.6543L17.8055 66.7081L17.7489 66.6698C17.9803 66.5049 17.9593 66.5096 18.0275 66.2802L17.9241 66.1832L17.6231 66.2502L17.5157 66.1758L17.5377 65.9536C17.3275 65.7458 16.7191 65.3686 16.4407 65.2084C15.6209 64.737 15.0151 63.9992 14.07 63.8521C13.9467 63.699 13.9174 63.663 13.7712 63.5334C13.665 63.5586 13.6127 63.5732 13.5071 63.6095L13.4168 63.6413L13.2808 63.5409C13.3096 63.4321 13.3446 63.3281 13.3857 63.2235C13.0455 63.0829 13.054 63.3264 12.6271 63.2482L12.5774 63.1476C12.7966 63.0428 12.8994 63.0486 12.9671 62.8817L12.8673 62.7767C12.6532 62.7782 12.546 62.8027 12.3693 62.6851C12.3825 62.265 11.8041 62.0347 11.4539 61.8671C10.8268 61.5669 11.0065 61.5539 10.6094 61.0484L10.4998 61.0354L10.2156 61.3923L10.0918 61.404L10.0331 61.279C10.1123 61.0821 10.151 61.0227 10.1691 60.8106C9.65625 60.3539 9.27802 60.732 9.11368 59.9552L9.14538 59.7697L9.34506 59.6575Z" fill="var(--fill-0, #FECC66)"/>
<path id="Vector_14" d="M18.688 66.6617C18.8329 66.5964 18.9886 66.5386 19.137 66.48C19.677 66.9116 21.0504 67.4217 21.6964 67.6943C21.9079 67.7836 21.8416 67.9926 21.8641 68.0038C22.6071 68.3747 26.5534 70.3357 27.1139 70.4891C26.8815 70.7786 26.9454 70.7899 26.6491 70.9003L26.2926 70.8231L26.0857 70.7881L26.0012 70.6668L26.0369 70.6464C25.7396 70.36 25.5635 70.2813 25.1618 70.1936C25.0611 70.3136 25.1202 70.2733 24.9922 70.3253C24.7245 70.1619 24.5718 70.0707 24.2889 69.94C24.1681 70.0674 24.2337 70.0132 24.0941 70.1051C23.9289 69.8972 24.1713 69.9773 24.0713 69.5767C23.4553 69.1463 22.5358 68.802 21.9054 68.4306C21.1927 68.011 20.9178 68.4347 20.4299 68.0486L20.4236 67.7974C20.1308 67.314 19.2095 66.865 18.688 66.6617Z" fill="var(--fill-0, #FECC66)"/>
<path id="Vector_15" d="M5.09922 57.7673C5.85971 56.2927 6.99231 57.7623 7.8141 58.3769C8.33501 58.7666 8.80171 59.2877 9.34506 59.6575L9.14538 59.7697L9.11368 59.9552C8.97867 59.8392 8.85556 59.9041 8.75984 59.8293C8.35738 59.5149 8.00934 59.1385 7.61978 58.8008L7.53152 58.8217L7.49674 58.9558C7.62452 59.1442 7.63807 59.1477 7.70662 59.3606L7.60057 59.3737C7.27734 59.0617 6.77848 58.8331 6.41841 58.5056C5.99181 58.1176 5.74746 58.4104 5.31765 58.4858C5.1082 58.3789 5.1849 58.4554 5.07506 58.2529C5.1187 58.0704 5.17155 57.9509 5.09922 57.7673Z" fill="var(--fill-0, #FECC66)"/>
<path id="Vector_16" d="M104.04 73.6933C104.878 73.4209 105.732 73.2136 106.57 72.9247C106.913 72.8064 108.211 72.2672 108.463 72.326C108.59 72.5526 108.65 72.6407 108.724 72.8946C108.422 72.886 107.072 73.2237 106.848 73.3635L106.874 73.499C106.882 73.5485 106.891 73.5987 106.9 73.6482L106.73 73.7328C106.632 73.5815 106.666 73.6345 106.642 73.4345C106.069 73.2846 105.731 74.0196 105.352 74.1436L105.276 73.9242C104.831 73.9493 104.011 74.3673 103.594 74.5487L103.486 74.4505C103.305 74.7789 103.616 74.5853 103.317 74.7846L103.244 74.6434L103.21 74.5315C102.965 74.5086 102.647 74.4426 102.393 74.4039C102.841 74.1429 103.485 74.0705 104.04 73.6933Z" fill="var(--fill-0, #FECC66)"/>
<path id="Vector_17" d="M82.4187 78.3776C82.9908 78.6887 83.8333 78.2973 84.3367 78.4815C84.1961 78.5726 82.7141 78.9117 82.3735 79.0107L82.2272 78.8888C81.7655 78.9505 82.048 79.2201 81.7705 79.1053L81.6622 78.9533L81.5417 78.9677L81.5267 79.2279L81.4206 79.2839L81.346 79.2208L81.3646 79.0157L81.2721 78.9727C80.6118 79.3964 80.7459 78.7275 80.4225 79.4208L80.3063 79.4287C80.2612 79.2595 80.2769 79.347 80.2612 79.1663C79.7442 79.0544 79.5735 79.6775 79.015 79.2982C78.8995 79.2193 78.5597 79.3111 78.4077 79.3441L78.4048 79.0386C78.8501 78.9791 79.6237 78.9082 79.9658 78.6464C80.5071 79.0501 81.8321 78.4822 82.4187 78.3776Z" fill="var(--fill-0, #FECC66)"/>
<path id="Vector_18" d="M119.05 87.8622C119.396 87.9884 119.381 87.916 119.505 88.1576C119.463 88.4043 119.441 88.4294 119.343 88.6517C119.389 88.8546 119.332 88.7771 119.492 88.9041C119.796 88.8532 120.061 88.7714 120.342 88.8675C120.499 89.0769 120.444 88.9557 120.446 89.2669C120.164 89.7745 119.779 89.2367 119.481 89.4002C119.622 89.4877 119.626 89.4741 119.79 89.5243C120.025 89.9753 119.643 89.6756 120.001 90.1302C119.997 90.2836 120.025 90.2212 119.93 90.3216C119.019 90.0068 118.91 89.1988 118.685 88.3555C118.751 88.2308 118.716 88.2824 118.811 88.1648L119.05 87.8622Z" fill="var(--fill-0, #FECC66)"/>
<path id="Vector_19" d="M45.2516 76.7442C45.7788 76.9163 50.0767 77.8226 50.6106 77.8341L50.8132 78.1947C49.5104 78.1309 46.0784 77.0891 45.0465 77.1056C45.1631 76.9729 45.1763 76.9062 45.2516 76.7442Z" fill="var(--fill-0, #FECC66)"/>
<path id="Vector_20" d="M50.6106 77.8341C51.1359 77.8341 51.6656 77.8434 52.1642 78.0312L52.3302 77.9409C52.8225 78.1775 53.4402 78.2593 53.9769 78.3281L53.9849 78.7203C53.6619 78.8422 51.3432 78.2922 50.8132 78.1947L50.6106 77.8341Z" fill="var(--fill-0, #FECC66)"/>
<path id="Vector_21" d="M108.463 72.326C108.689 72.1317 109.983 71.6234 110.298 71.5385L110.412 71.6431L110.365 72.0306C109.66 72.5475 109.556 72.7146 108.724 72.8946C108.65 72.6407 108.59 72.5525 108.463 72.326Z" fill="var(--fill-0, #FECC66)"/>
<path id="Vector_22" d="M128.076 82.7248C128.038 82.4975 127.985 82.2681 128.121 82.0788C128.387 82.0888 128.52 82.1354 128.716 81.9447C128.627 81.8264 128.538 81.7088 128.447 81.5926L128.511 81.4729C128.756 81.3962 128.641 81.389 128.868 81.4772C128.911 81.7432 128.931 81.7948 129.029 82.0494C128.951 82.1677 128.773 82.4645 128.679 82.5384C128.474 82.5979 128.277 82.6531 128.076 82.7248Z" fill="var(--fill-0, #FECC66)"/>
<path id="Vector_23" d="M134.904 56.8287C135.078 56.8807 135.146 56.8318 135.324 56.7726C135.632 56.9562 135.711 57.124 136.023 56.9537L136.076 57.0198C135.841 57.3173 134.789 57.4881 134.44 57.2611C134.427 57.0202 134.394 57.1258 134.549 56.9355L134.904 56.8287Z" fill="var(--fill-0, #FECC66)"/>
<path id="Vector_24" d="M122.196 58.3911C122.411 58.5069 122.324 58.4268 122.448 58.6554C122.347 59.002 122.125 59.21 121.748 59.1518C121.533 58.9747 121.602 59.0805 121.51 58.8395C121.62 58.5852 121.631 58.638 121.89 58.4454L122.196 58.3911Z" fill="var(--fill-0, #FECC66)"/>
<path id="Vector_25" d="M44.1648 76.4925C44.5051 76.3663 44.8793 76.5879 45.2516 76.7442C45.1763 76.9062 45.1631 76.9729 45.0465 77.1056C44.8527 77.0776 44.273 76.8812 44.0463 76.8109L44.1648 76.4925Z" fill="var(--fill-0, #FECC66)"/>
<path id="Vector_26" d="M128.076 82.7248C128.277 82.6531 128.474 82.5979 128.679 82.5384L128.543 82.9528C128.104 83.2102 127.99 83.4512 127.408 83.4927C127.57 83.2991 128.129 82.9959 128.384 82.8245L128.374 82.7557L128.076 82.7248Z" fill="var(--fill-0, #FECC66)"/>
<path id="Vector_27" d="M121.905 88.2344L122.004 88.2709L122.032 88.3749C121.925 88.4961 121.583 88.9671 121.5 89.0955C121.923 89.2468 122.123 88.9299 122.379 89.1012C122.294 89.3773 122.075 89.6684 121.842 89.8405L121.768 89.7566C121.702 89.5938 121.706 89.6031 121.586 89.4741C121.286 89.5422 121.273 89.5436 120.965 89.5415L120.879 89.4397C120.919 89.1772 120.91 89.1944 121.07 88.9836L121.17 88.9822L121.289 89.1686L121.367 89.1392C121.49 88.5742 121.443 88.6316 121.905 88.2344Z" fill="var(--fill-0, #FECC66)"/>
<path id="Vector_28" d="M133.208 57.1281L133.436 57.316L133.431 57.4324C133.176 57.656 133.136 57.7158 133.016 58.0321L132.841 57.905C132.817 57.5367 132.961 57.4186 133.208 57.1281Z" fill="var(--fill-0, #FECC66)"/>
<path id="Vector_29" d="M125.081 84.133L125.265 84.2076C125.574 84.6557 125.285 84.9476 124.956 85.253C124.826 84.7633 125.177 85.0444 125.145 84.6622C125.124 84.4148 124.945 84.6099 125.081 84.133Z" fill="var(--fill-0, #FECC66)"/>
<path id="Vector_30" d="M124.031 58.3839C124.331 58.3623 124.593 58.3051 124.84 58.4357L124.886 58.6245C124.479 58.6271 124.166 58.7809 124.031 58.3839Z" fill="var(--fill-0, #FECC66)"/>
<path id="Vector_31" d="M11.6318 65.5664C11.8033 65.683 11.846 65.7066 11.8563 65.8902C11.6812 66.0724 11.5839 66.1155 11.3702 66.2415L11.2699 66.2507L11.2354 66.1667C11.4851 65.9075 11.5119 65.8952 11.6318 65.5664Z" fill="var(--fill-0, #FECC66)"/>
<path id="Vector_32" d="M83.2791 80.4246L83.3744 80.5573C83.2404 80.8599 83.2318 80.8706 83.2891 81.1861C83.0396 81.0391 83.1235 81.1409 83.021 80.8792C83.0611 80.6211 83.1005 80.6154 83.2791 80.4246Z" fill="var(--fill-0, #FECC66)"/>
<path id="Vector_33" d="M103.817 62.5241C104.007 62.6096 104.309 62.7212 104.407 62.907C104.326 63.0905 104.384 63.0173 104.214 63.1155C103.862 63.1005 103.239 63.089 103.176 62.6406C103.391 62.6377 103.523 62.6276 103.733 62.6072L103.817 62.5241Z" fill="var(--fill-0, #FECC66)"/>
<path id="Vector_34" d="M13.5399 69.826C13.7751 69.5523 13.9468 69.3006 14.2618 69.1364L14.3108 69.2053C14.1877 69.4613 13.8787 69.8258 13.6221 69.9278L13.5399 69.826Z" fill="var(--fill-0, #FECC66)"/>
</g>
</svg>
