<svg preserveAspectRatio="none" width="100%" height="100%" overflow="visible" style="display: block;" viewBox="0 0 40 40" fill="none" xmlns="http://www.w3.org/2000/svg">
<g id="ic:round-email">
<rect width="40" height="40" rx="20" fill="var(--fill-0, #FECC66)"/>
<path id="Vector" d="M28 10H12C10.9 10 10.01 10.9 10.01 12L10 24C10 25.1 10.9 26 12 26H28C29.1 26 30 25.1 30 24V12C30 10.9 29.1 10 28 10ZM27.6 14.25L20.53 18.67C20.21 18.87 19.79 18.87 19.47 18.67L12.4 14.25C12.2997 14.1937 12.2119 14.1177 12.1419 14.0265C12.0719 13.9352 12.0211 13.8308 11.9926 13.7194C11.9641 13.608 11.9585 13.4919 11.9762 13.3783C11.9938 13.2647 12.0343 13.1558 12.0953 13.0583C12.1562 12.9608 12.2363 12.8767 12.3307 12.811C12.4251 12.7453 12.5319 12.6995 12.6445 12.6763C12.7571 12.6531 12.8733 12.653 12.986 12.6759C13.0986 12.6989 13.2055 12.7445 13.3 12.81L20 17L26.7 12.81C26.7945 12.7445 26.9014 12.6989 27.014 12.6759C27.1267 12.653 27.2429 12.6531 27.3555 12.6763C27.4681 12.6995 27.5749 12.7453 27.6693 12.811C27.7637 12.8767 27.8438 12.9608 27.9047 13.0583C27.9657 13.1558 28.0062 13.2647 28.0238 13.3783C28.0415 13.4919 28.0359 13.608 28.0074 13.7194C27.9789 13.8308 27.9281 13.9352 27.8581 14.0265C27.7881 14.1177 27.7003 14.1937 27.6 14.25Z" fill="var(--fill-0, black)"/>
</g>
</svg>
